<svg width="193" height="195" viewBox="0 0 193 195" fill="none" xmlns="http://www.w3.org/2000/svg">
<path d="M136.293 144.466C136.715 143.411 136.926 142.146 137.348 141.091C139.879 134.552 147.26 133.287 152.11 138.349C155.274 141.724 156.117 145.731 154.219 149.317C151.689 153.957 147.471 156.067 142.62 155.434C140.089 155.012 139.457 153.325 138.402 151.637C137.77 149.317 136.926 146.997 136.293 144.466Z" fill="#FAC95D"/>
<path d="M191.336 145.309C191.125 146.364 191.125 147.419 190.915 148.473C191.125 147.419 191.336 146.364 191.336 145.309C191.336 145.098 191.336 144.677 191.125 144.466C190.071 141.934 187.751 140.88 185.221 140.247C185.01 140.036 184.799 140.036 184.377 140.036C182.268 138.138 179.948 136.24 176.785 136.661C173.832 135.607 171.091 134.763 167.927 134.552C164.975 134.341 164.131 132.654 166.029 130.545C169.825 126.537 171.302 121.264 173.832 116.412C175.098 113.881 176.152 110.717 176.363 107.765C176.574 103.968 174.676 100.804 171.091 100.382C168.138 99.9602 164.975 99.9603 162.022 99.7493C158.226 99.5384 155.274 101.648 153.376 104.39C149.79 109.663 146.627 115.147 143.464 120.631C142.831 121.897 142.409 123.373 140.933 123.373C139.246 123.584 138.824 121.686 138.402 120.631C136.082 114.303 131.232 109.663 127.436 104.39C126.171 102.491 124.273 101.859 122.164 102.28C119.422 102.702 116.68 103.124 113.939 103.757C110.564 104.601 108.666 105.444 108.034 108.608C106.979 115.569 107.19 122.529 111.619 128.435C113.517 130.966 115.415 133.919 118.367 135.818C120.476 137.294 121.531 139.825 122.796 141.935C123.851 143.833 123.218 145.731 121.109 146.364C119 147.208 117.524 148.895 115.837 150.161C113.306 152.059 111.83 155.434 109.299 157.121C105.503 159.652 105.292 163.238 104.87 167.035C104.448 169.988 106.558 172.308 108.666 172.941C111.408 173.995 114.782 175.261 117.946 173.784C123.64 171.253 129.545 169.144 134.817 165.769C138.191 163.66 138.192 163.871 139.879 167.246C140.722 169.144 141.777 171.253 142.62 173.152C145.994 179.69 149.369 186.018 153.798 191.713C154.852 192.979 155.696 194.244 157.172 194.455C162.022 195.088 167.295 191.08 168.138 186.018C168.56 183.065 168.771 180.112 168.771 176.948C168.982 171.253 167.505 165.98 165.818 160.707C165.186 158.809 166.029 157.332 167.927 157.332C168.982 157.332 169.825 157.754 170.88 157.965C176.363 158.598 181.846 158.387 186.486 154.59C189.438 154.168 191.336 152.692 191.336 149.317C193.445 147.84 193.445 146.364 191.336 145.309ZM154.008 149.317C151.478 153.957 147.26 156.067 142.409 155.434C139.879 155.012 139.246 153.325 138.191 151.637C137.348 149.317 136.715 146.997 135.872 144.466C136.293 143.411 136.504 142.145 136.926 141.091C139.457 134.552 146.838 133.287 151.689 138.349C155.274 141.935 155.906 145.942 154.008 149.317ZM179.105 139.403C178.894 138.771 178.261 138.56 177.839 138.138C178.261 138.56 178.894 138.982 179.105 139.403Z" fill="#85A865"/>
<path d="M40.3372 127.592C36.7521 127.381 34.6431 125.271 34.2213 121.897C34.0104 119.576 35.9084 117.045 38.4392 115.991C42.657 114.303 46.0315 115.358 49.1949 118.311C48.3513 121.053 47.5076 123.795 46.664 126.537C46.2422 126.537 45.8205 126.748 45.3987 126.748C43.7116 126.748 42.0244 126.115 40.3372 127.592Z" fill="#FAC95D"/>
<path d="M86.5227 116.412C81.0395 112.194 75.3453 107.975 67.9641 107.343C66.6987 107.132 65.2227 107.132 63.9573 106.921C59.3177 106.077 59.1066 106.077 60.372 101.648C62.0591 95.9526 62.9027 90.2576 62.4809 84.1408C62.0591 79.2895 59.7393 76.7583 55.0997 75.9146C50.46 75.0709 46.8749 76.7584 44.3442 80.766C40.9699 86.2501 38.4393 91.945 36.7521 98.0618C36.3303 99.5383 36.3304 101.226 34.4323 102.491C30.8472 98.2728 26.4182 95.3199 21.5677 92.9997C17.1389 90.8904 13.132 88.7812 7.85965 89.8358C1.32198 91.1014 -1.84131 96.7964 1.11119 102.913C4.06369 108.608 8.70328 112.616 13.9756 115.78C15.8736 116.834 17.7718 117.889 19.6699 119.154C20.7243 119.998 21.7786 121.053 20.3024 122.529C17.9826 125.06 16.9281 128.224 15.0301 131.177C11.6558 136.029 9.75784 141.724 8.2816 147.419C7.64892 149.739 8.49249 151.848 10.3905 153.114C14.3975 155.645 20.0916 155.012 24.0986 151.848C26.8402 149.739 29.7925 147.63 31.0579 144.044C31.2687 143.2 31.9015 142.567 32.9559 142.567C34.4322 142.356 34.4323 143.833 34.6432 144.677C35.2759 146.575 35.9085 148.473 36.7521 150.372C38.6501 154.59 40.1263 159.02 44.3442 161.762C49.1947 164.925 54.6778 163.66 57.4194 158.598C59.5284 155.012 59.9503 151.004 60.1612 146.997C60.372 142.778 60.1611 138.56 60.372 134.341C60.5829 129.912 61.0047 129.279 65.4335 129.279C71.3385 129.279 77.0327 128.857 82.9377 128.013C85.6793 127.592 87.1553 126.115 87.9989 123.795C88.8425 121.053 88.8426 118.1 86.5227 116.412ZM51.0927 118.311C51.7253 118.311 52.5689 118.1 53.2016 118.1C52.5689 118.1 51.9362 118.1 51.0927 118.311ZM45.6095 126.748C45.3986 127.803 45.1877 128.857 44.555 129.49C44.9768 128.857 45.1877 127.592 45.6095 126.748C43.9224 126.748 42.0243 126.115 40.548 127.592C36.9629 127.381 34.8541 125.271 34.4323 121.897C34.2215 119.576 36.1195 117.045 38.6502 115.991C42.8681 114.303 46.2423 115.358 49.4057 118.311C48.5621 121.053 47.7184 123.795 46.8748 126.537C46.453 126.537 46.0313 126.537 45.6095 126.748Z" fill="#FACF71"/>
<path d="M107.19 42.5883C107.823 44.9085 110.143 45.7522 111.408 47.8615C112.674 50.3926 112.041 52.291 110.775 54.4003C109.299 56.7204 107.401 56.0877 105.503 55.4549C104.66 53.1347 102.762 51.0253 102.129 48.4942C102.129 47.8614 102.129 47.2287 102.34 46.385C103.394 45.5413 103.816 44.4866 103.816 43.2211C103.816 43.0101 104.027 42.7992 104.027 42.5883C104.871 42.5883 105.925 42.5883 107.19 42.5883Z" fill="#FAC95D"/>
<path d="M148.525 67.8994C147.682 67.0557 146.838 66.4229 146.205 65.3682C143.675 61.5716 140.722 58.1969 136.504 56.5094C136.293 56.2985 136.083 56.2984 135.872 56.2984C135.239 52.7127 131.654 52.7128 129.545 51.2363C127.014 49.5489 127.014 48.916 129.545 47.4395C134.817 44.6975 139.668 41.3227 143.885 37.3151C149.79 31.6201 149.158 26.1361 142.831 21.2848C142.198 20.8629 141.355 20.441 140.722 20.0191C140.511 19.8082 140.3 19.8083 139.879 19.8083C136.504 17.2771 130.599 17.488 126.381 20.0191C122.164 22.3393 118.789 25.9252 114.36 28.0344C114.36 28.6672 113.939 28.8781 113.306 29.0891C113.306 28.4563 113.517 28.0344 114.36 28.0344C113.517 25.9252 113.517 23.605 113.095 21.2848C112.462 15.8007 110.354 10.7384 106.136 6.73081C105.925 5.0434 104.659 4.83253 103.394 4.41068C102.551 3.56697 101.707 2.72319 100.652 2.09041C95.8019 -1.49533 90.7406 -0.440649 88.2099 5.04343C86.101 9.6838 85.8901 14.746 86.101 19.8083C86.3119 23.8159 86.7335 27.6125 86.9444 31.6201C84.6245 31.1982 82.7267 30.7765 81.0395 30.1437C73.8692 27.8235 66.6988 26.5578 59.9502 31.6201C56.576 33.9403 55.9432 37.5261 58.263 40.9009C60.7937 45.5412 65.0116 48.7052 69.6513 51.2363C73.2364 53.1346 77.4544 54.1893 80.8287 56.5094C82.5158 57.5641 84.4137 58.1968 86.5227 57.775C89.0534 59.2514 89.0533 61.1497 87.9988 63.6809C86.3117 68.1103 83.7811 72.3288 84.2029 77.3911C83.5702 78.6566 83.3592 80.1331 83.781 81.3987C82.9374 85.8281 84.4137 89.4139 86.7335 92.9996C87.3662 94.0543 88.2099 94.687 89.4752 94.2651C90.7406 94.2651 92.2169 94.4761 93.4822 94.4761C94.9585 95.7417 96.4346 95.1089 98.1218 94.4761C102.129 92.3669 104.449 88.7811 105.714 84.5626C105.081 84.3517 104.448 84.5625 103.816 84.3516C104.448 84.5625 105.081 84.5626 105.714 84.5626C105.925 84.1407 106.136 83.7188 106.347 83.297C108.034 80.5549 109.51 78.0239 110.775 75.0709C111.408 73.3835 111.619 71.0633 113.939 70.2196C115.837 69.5869 116.68 71.696 118.367 72.1179C119.633 72.5398 121.109 72.7507 121.953 73.8053C126.382 78.8675 132.708 79.0785 138.402 81.6096C139.035 81.6096 139.668 81.6096 140.511 81.6096C141.355 82.2424 142.409 82.6642 143.675 82.2423C144.729 82.6642 145.573 82.6642 146.627 82.2423C150.423 81.8205 151.899 80.7659 152.11 77.8129C152.11 74.2272 151.689 70.4305 148.525 67.8994ZM102.129 43.432C102.34 43.0102 102.761 42.7992 103.183 42.5882C102.761 42.5882 102.34 42.7992 102.129 43.432ZM106.347 28.4562C106.347 27.6125 106.557 26.7689 106.557 25.9252C106.557 26.7689 106.558 27.6125 106.347 28.4562C106.347 30.1436 106.347 31.6202 107.19 33.3076C107.19 33.7294 107.19 34.1512 107.19 34.5731C107.19 34.784 107.19 35.2058 107.401 35.2058C107.19 34.9949 107.19 34.784 107.19 34.5731C107.19 34.1512 107.19 33.7294 107.19 33.3076C106.347 31.6202 106.347 30.1436 106.347 28.4562ZM110.564 54.4002C109.088 56.7204 107.19 56.0876 105.292 55.4548C104.449 53.1346 102.551 51.0253 101.918 48.4942C101.918 47.8614 101.918 47.2286 102.129 46.3849C103.183 45.5412 103.605 44.4866 103.605 43.221C103.605 43.0101 103.816 42.7992 103.816 42.5882C104.87 42.5882 106.136 42.5883 107.19 42.3774C107.823 44.6976 110.143 45.5413 111.408 47.6505C112.673 50.3926 112.041 52.2909 110.564 54.4002Z" fill="#E56D6A"/>
</svg>
