<svg width="107" height="125" viewBox="0 0 107 125" fill="none" xmlns="http://www.w3.org/2000/svg">
<path d="M106.077 47.2684C105.655 41.3625 103.546 36.3003 101.015 31.238C97.641 24.9103 92.1577 20.2698 87.7289 14.7858C86.6745 13.5202 85.62 11.8328 84.3547 11.2001C78.4497 8.66894 73.3883 4.45038 67.2724 2.13019C59.6803 -0.822772 52.088 0.0209584 44.4959 0.442811C43.2305 0.442811 41.9653 1.28654 40.7 1.91932C38.3802 0.864689 36.4821 2.34117 34.584 2.97395C32.8969 2.76302 31.6315 3.39576 30.577 4.45039C25.5156 5.92688 20.665 7.61429 17.0799 11.8328L16.869 12.0437C15.6037 12.0437 14.76 13.0984 13.9165 13.9421C2.31736 25.9649 -1.68945 40.5187 0.630373 56.971C0.630373 57.6038 0.841112 58.2366 1.2629 58.8694C0.841112 62.4551 2.52825 65.619 3.37182 68.9938C3.79361 70.4703 4.2156 71.7359 5.69185 72.5796C5.90274 73.0014 6.32432 73.6342 6.53521 74.056C7.37879 75.9544 8.22251 77.8527 9.06608 79.7511C9.69876 80.8057 10.7531 81.4384 11.8075 81.4384C12.0184 82.704 13.0729 83.3368 13.9165 84.1805C13.9165 85.4461 14.7601 86.0788 15.8145 86.2898C16.0254 87.5553 16.869 87.9772 17.9235 88.1881C17.9235 90.0864 19.6107 90.0864 20.876 90.2974C21.2978 90.7192 21.7195 90.9301 22.1413 91.352C21.9304 92.6175 22.7741 93.2503 23.8286 93.4613C23.6177 93.6722 23.8286 94.094 23.8286 94.3049C24.0395 95.9923 24.2502 97.6797 24.4611 99.3672C24.4611 100.422 24.6722 101.265 24.6722 102.32C23.8286 103.375 24.0393 104.429 24.4611 105.484C24.0393 106.539 23.8286 107.593 24.883 108.437C25.7266 111.39 24.2503 114.765 26.1483 117.507C26.1483 118.772 26.1483 120.249 26.1483 121.514C26.9919 124.678 29.5227 124.467 32.0534 124.678C32.4752 124.678 32.6861 124.678 33.1079 124.678C36.2713 125.944 37.5364 123.202 39.2236 121.514C40.6998 120.46 41.9653 118.983 43.0198 117.507C46.394 112.866 49.7684 108.437 53.3536 103.797C54.6189 101.898 56.306 101.055 58.8367 100.844C64.3199 100 69.5922 99.5781 74.8645 97.2579C86.2527 92.4066 94.8994 84.6023 100.804 73.8451C105.655 65.8299 106.499 56.7601 106.077 47.2684ZM29.9445 8.87986C29.5227 9.30171 29.3117 9.72357 29.3117 10.1454C29.3117 10.9891 29.9444 11.411 30.577 12.0437C29.7335 11.411 29.3117 10.9891 29.3117 10.1454C29.5226 9.72357 29.7336 9.30171 29.9445 8.87986ZM12.2295 76.3762C12.6513 76.3762 12.8622 76.3762 13.2839 76.3762C12.8622 76.1653 12.4404 76.3762 12.2295 76.3762ZM96.3757 57.6038C94.4777 68.1501 89.627 76.7981 81.1913 83.5477C77.1843 86.7116 72.7557 89.0318 68.1161 91.1411C63.6873 93.2503 58.8368 93.0394 54.1972 93.4613C50.1902 93.8831 47.6593 95.5705 45.5504 98.5235C42.5979 102.531 39.6455 106.539 36.693 110.757C36.2712 111.39 35.8495 112.234 34.1624 112.023C34.1624 108.015 33.7405 103.797 34.3732 99.789C35.2168 94.305 33.1079 90.7192 28.8901 88.1881C27.8356 87.5553 27.2029 86.7116 25.9375 86.5006C25.0939 85.2351 23.8286 84.8133 22.5633 84.1805C22.3524 82.704 22.3524 81.0166 20.4543 80.5947C19.8217 79.5401 19.8217 78.0636 18.3454 77.6418C16.6583 75.1107 15.8146 72.3686 13.4948 70.2594C13.4948 68.9938 12.6513 68.361 12.0186 67.5173C11.8077 63.5097 10.5423 59.7131 10.1205 55.7055C9.06608 45.3701 10.9642 35.8784 16.2365 27.0195C19.3999 21.5354 23.8284 17.3169 29.7334 14.9967C30.7879 14.5748 31.4208 14.153 32.0534 13.3093C32.4752 13.0984 33.1078 13.0984 33.5296 12.8874C33.9514 11.2 34.7949 10.3563 35.8494 9.93449C34.7949 10.5673 33.9514 11.411 33.5296 12.8874C36.693 12.4656 39.6455 11.6219 41.7545 9.09079C43.6525 10.1454 45.5504 9.93446 47.6593 9.51261C52.9316 8.24705 58.204 8.45798 63.2654 9.51261C68.3268 10.3563 73.1774 12.8875 76.9734 16.2623C82.4566 21.1136 87.729 26.3867 91.5251 32.7145C93.634 36.3002 95.532 39.886 95.9538 44.3154C96.1647 48.1121 97.2193 52.7525 96.3757 57.6038Z" fill="#E88280"/>
<path d="M64.9527 25.1212C62.2111 23.6447 60.3129 23.6447 58.2039 25.7539C57.3604 26.8085 56.3059 27.8632 56.095 29.1287C55.4623 33.1363 52.7208 36.5112 53.5644 40.7297C53.7753 41.9952 53.1425 42.628 51.8772 42.4171C51.6663 41.5734 51.0337 41.1516 50.1902 40.9406C50.612 39.6751 49.7684 38.8313 49.1357 38.1985C48.0812 33.3472 44.9179 30.3943 40.4892 28.4959C39.0129 27.8632 37.7476 27.6522 36.2713 28.4959C32.6861 30.1833 30.3661 34.8237 31.8424 39.4641C33.5295 44.5263 35.4275 49.7995 38.1691 54.4399C41.1216 59.2912 43.2306 64.3534 45.5504 69.4156C46.394 70.8921 47.2376 72.3686 48.5029 73.4232C53.7752 78.6964 56.9386 78.2745 60.102 71.314C63.0545 64.3534 65.3745 57.1819 66.8507 50.0104C68.9597 45.1591 69.8032 40.0969 70.225 34.8237C70.0141 30.6052 68.7487 27.4414 64.9527 25.1212Z" fill="#E88280"/>
</svg>
