<svg width="128" height="128" viewBox="0 0 128 128" fill="none" xmlns="http://www.w3.org/2000/svg">
<g clip-path="url(#clip0_1_2)">
<path d="M20.925 79.425L1.125 61.875L20.925 44.25H25.2L5.4 61.875L25.2 79.425H20.925ZM81.7148 90.525C78.0648 90.525 74.7648 89.9 71.8148 88.65C68.9148 87.4 66.6148 85.6 64.9148 83.25C63.2148 80.9 62.3398 78.125 62.2898 74.925H73.5398C73.6898 77.075 74.4398 78.775 75.7898 80.025C77.1898 81.275 79.0898 81.9 81.4898 81.9C83.9398 81.9 85.8648 81.325 87.2648 80.175C88.6648 78.975 89.3648 77.425 89.3648 75.525C89.3648 73.975 88.8898 72.7 87.9398 71.7C86.9898 70.7 85.7898 69.925 84.3398 69.375C82.9398 68.775 80.9898 68.125 78.4898 67.425C75.0898 66.425 72.3148 65.45 70.1648 64.5C68.0648 63.5 66.2398 62.025 64.6898 60.075C63.1898 58.075 62.4398 55.425 62.4398 52.125C62.4398 49.025 63.2148 46.325 64.7648 44.025C66.3148 41.725 68.4898 39.975 71.2898 38.775C74.0898 37.525 77.2898 36.9 80.8898 36.9C86.2898 36.9 90.6648 38.225 94.0148 40.875C97.4148 43.475 99.2898 47.125 99.6398 51.825H88.0898C87.9898 50.025 87.2148 48.55 85.7648 47.4C84.3648 46.2 82.4898 45.6 80.1398 45.6C78.0898 45.6 76.4398 46.125 75.1898 47.175C73.9898 48.225 73.3898 49.75 73.3898 51.75C73.3898 53.15 73.8398 54.325 74.7398 55.275C75.6898 56.175 76.8398 56.925 78.1898 57.525C79.5898 58.075 81.5398 58.725 84.0398 59.475C87.4398 60.475 90.2148 61.475 92.3648 62.475C94.5148 63.475 96.3648 64.975 97.9148 66.975C99.4648 68.975 100.24 71.6 100.24 74.85C100.24 77.65 99.5148 80.25 98.0648 82.65C96.6148 85.05 94.4898 86.975 91.6898 88.425C88.8898 89.825 85.5648 90.525 81.7148 90.525Z" fill="#343434"/>
<path d="M63.4787 37.65V46.125H49.5287V90H39.0287V46.125H25.0787V37.65H63.4787ZM101.093 44.25H105.368L125.168 61.875L105.368 79.425H101.093L120.893 61.875L101.093 44.25Z" fill="#E56D6A"/>
</g>
<defs>
<clipPath id="clip0_1_2">
<rect width="128" height="128" fill="white"/>
</clipPath>
</defs>
</svg>
